<svg xmlns="http://www.w3.org/2000/svg" viewBox="0 0 900 420" fill="none">
  <!-- Code editor window -->
  <rect x="40" y="30" width="400" height="320" rx="14" fill="white" fill-opacity="0.05" stroke="white" stroke-opacity="0.12" stroke-width="1.5"/>
  <!-- Title bar -->
  <rect x="40" y="30" width="400" height="36" rx="14" fill="white" fill-opacity="0.08"/>
  <circle cx="62"  cy="48" r="5" fill="white" fill-opacity="0.4"/>
  <circle cx="80"  cy="48" r="5" fill="white" fill-opacity="0.3"/>
  <circle cx="98"  cy="48" r="5" fill="white" fill-opacity="0.2"/>
  <rect x="120" y="41" width="100" height="14" rx="7" fill="white" fill-opacity="0.1"/>
  <!-- Code lines -->
  <rect x="60"  y="84"  width="20"  height="8" rx="3" fill="white" fill-opacity="0.5"/>
  <rect x="88"  y="84"  width="60"  height="8" rx="3" fill="white" fill-opacity="0.3"/>
  <rect x="156" y="84"  width="40"  height="8" rx="3" fill="white" fill-opacity="0.5"/>
  <rect x="204" y="84"  width="20"  height="8" rx="3" fill="white" fill-opacity="0.3"/>

  <rect x="80"  y="102" width="80"  height="8" rx="3" fill="white" fill-opacity="0.4"/>
  <rect x="168" y="102" width="100" height="8" rx="3" fill="white" fill-opacity="0.25"/>
  <rect x="276" y="102" width="40"  height="8" rx="3" fill="white" fill-opacity="0.4"/>

  <rect x="80"  y="120" width="50"  height="8" rx="3" fill="white" fill-opacity="0.55"/>
  <rect x="138" y="120" width="120" height="8" rx="3" fill="white" fill-opacity="0.3"/>
  <rect x="266" y="120" width="30"  height="8" rx="3" fill="white" fill-opacity="0.45"/>

  <rect x="60"  y="138" width="20"  height="8" rx="3" fill="white" fill-opacity="0.5"/>
  <rect x="88"  y="138" width="80"  height="8" rx="3" fill="white" fill-opacity="0.35"/>
  <rect x="176" y="138" width="60"  height="8" rx="3" fill="white" fill-opacity="0.5"/>
  <rect x="244" y="138" width="80"  height="8" rx="3" fill="white" fill-opacity="0.25"/>

  <rect x="80"  y="156" width="160" height="8" rx="3" fill="white" fill-opacity="0.3"/>
  <rect x="248" y="156" width="40"  height="8" rx="3" fill="white" fill-opacity="0.5"/>

  <rect x="80"  y="174" width="40"  height="8" rx="3" fill="white" fill-opacity="0.45"/>
  <rect x="128" y="174" width="100" height="8" rx="3" fill="white" fill-opacity="0.3"/>
  <rect x="236" y="174" width="20"  height="8" rx="3" fill="white" fill-opacity="0.45"/>

  <rect x="60"  y="192" width="20"  height="8" rx="3" fill="white" fill-opacity="0.5"/>
  <rect x="88"  y="192" width="60"  height="8" rx="3" fill="white" fill-opacity="0.35"/>
  <rect x="156" y="192" width="80"  height="8" rx="3" fill="white" fill-opacity="0.55"/>

  <!-- Cursor blink line -->
  <rect x="60" y="210" width="3"   height="14" rx="1" fill="white" fill-opacity="0.7"/>
  <rect x="68" y="210" width="100" height="8"  rx="3" fill="white" fill-opacity="0.2"/>

  <!-- More faded code lines -->
  <rect x="80"  y="234" width="180" height="7" rx="3" fill="white" fill-opacity="0.12"/>
  <rect x="80"  y="248" width="120" height="7" rx="3" fill="white" fill-opacity="0.1"/>
  <rect x="80"  y="262" width="200" height="7" rx="3" fill="white" fill-opacity="0.08"/>
  <rect x="60"  y="276" width="140" height="7" rx="3" fill="white" fill-opacity="0.1"/>
  <rect x="80"  y="290" width="80"  height="7" rx="3" fill="white" fill-opacity="0.08"/>
  <rect x="60"  y="304" width="20"  height="7" rx="3" fill="white" fill-opacity="0.12"/>

  <!-- Neural network skill graph — right side -->
  <!-- Core Python node -->
  <circle cx="680" cy="210" r="36" fill="white" fill-opacity="0.15" stroke="white" stroke-opacity="0.4" stroke-width="2"/>
  <circle cx="680" cy="210" r="28" fill="white" fill-opacity="0.1"/>
  <text x="680" y="215" text-anchor="middle" font-family="system-ui" font-size="11" font-weight="800" fill="white" fill-opacity="0.8">Python</text>

  <!-- Primary skill nodes -->
  <circle cx="560" cy="120" r="22" fill="white" fill-opacity="0.12" stroke="white" stroke-opacity="0.3" stroke-width="1.5"/>
  <text x="560" y="125" text-anchor="middle" font-family="system-ui" font-size="9" font-weight="700" fill="white" fill-opacity="0.7">PyTorch</text>

  <circle cx="800" cy="120" r="20" fill="white" fill-opacity="0.1" stroke="white" stroke-opacity="0.25" stroke-width="1.5"/>
  <text x="800" y="125" text-anchor="middle" font-family="system-ui" font-size="9" font-weight="700" fill="white" fill-opacity="0.7">LangChain</text>

  <circle cx="820" cy="280" r="18" fill="white" fill-opacity="0.1" stroke="white" stroke-opacity="0.25" stroke-width="1.5"/>
  <text x="820" y="285" text-anchor="middle" font-family="system-ui" font-size="8" font-weight="700" fill="white" fill-opacity="0.65">MLflow</text>

  <circle cx="600" cy="320" r="18" fill="white" fill-opacity="0.1" stroke="white" stroke-opacity="0.25" stroke-width="1.5"/>
  <text x="600" y="325" text-anchor="middle" font-family="system-ui" font-size="8" font-weight="700" fill="white" fill-opacity="0.65">Docker</text>

  <circle cx="760" cy="360" r="16" fill="white" fill-opacity="0.08" stroke="white" stroke-opacity="0.2" stroke-width="1"/>
  <text x="760" y="365" text-anchor="middle" font-family="system-ui" font-size="8" fill="white" fill-opacity="0.55">AWS</text>

  <circle cx="540" cy="300" r="15" fill="white" fill-opacity="0.08" stroke="white" stroke-opacity="0.2" stroke-width="1"/>
  <text x="540" y="305" text-anchor="middle" font-family="system-ui" font-size="8" fill="white" fill-opacity="0.55">SQL</text>

  <circle cx="860" cy="200" r="14" fill="white" fill-opacity="0.07" stroke="white" stroke-opacity="0.15" stroke-width="1"/>
  <text x="860" y="205" text-anchor="middle" font-family="system-ui" font-size="7.5" fill="white" fill-opacity="0.5">RAG</text>

  <!-- Edges -->
  <line x1="648" y1="190" x2="582" y2="138" stroke="white" stroke-opacity="0.18" stroke-width="1.5" stroke-dasharray="4 4"/>
  <line x1="712" y1="190" x2="780" y2="138" stroke="white" stroke-opacity="0.18" stroke-width="1.5" stroke-dasharray="4 4"/>
  <line x1="710" y1="234" x2="803" y2="268" stroke="white" stroke-opacity="0.15" stroke-width="1" stroke-dasharray="3 5"/>
  <line x1="656" y1="234" x2="618" y2="304" stroke="white" stroke-opacity="0.15" stroke-width="1" stroke-dasharray="3 5"/>
  <line x1="660" y1="228" x2="555" y2="290" stroke="white" stroke-opacity="0.12" stroke-width="1" stroke-dasharray="3 5"/>
  <line x1="718" y1="218" x2="846" y2="206" stroke="white" stroke-opacity="0.12" stroke-width="1" stroke-dasharray="3 5"/>
  <line x1="710" y1="244" x2="749" y2="346" stroke="white" stroke-opacity="0.12" stroke-width="1" stroke-dasharray="3 5"/>

  <!-- Skill rank pills floating -->
  <rect x="460" y="50" width="120" height="28" rx="14" fill="white" fill-opacity="0.08" stroke="white" stroke-opacity="0.15" stroke-width="1"/>
  <rect x="472" y="60" width="30"  height="8"  rx="4" fill="white" fill-opacity="0.4"/>
  <rect x="510" y="60" width="55"  height="8"  rx="4" fill="white" fill-opacity="0.25"/>

  <rect x="460" y="90" width="120" height="28" rx="14" fill="white" fill-opacity="0.08" stroke="white" stroke-opacity="0.15" stroke-width="1"/>
  <rect x="472" y="100" width="30"  height="8"  rx="4" fill="white" fill-opacity="0.35"/>
  <rect x="510" y="100" width="55"  height="8"  rx="4" fill="white" fill-opacity="0.22"/>

  <rect x="460" y="130" width="120" height="28" rx="14" fill="white" fill-opacity="0.06" stroke="white" stroke-opacity="0.12" stroke-width="1"/>
  <rect x="472" y="140" width="30"  height="8"  rx="4" fill="white" fill-opacity="0.3"/>
  <rect x="510" y="140" width="55"  height="8"  rx="4" fill="white" fill-opacity="0.18"/>

  <!-- Upward trend arrow (top right) -->
  <polyline points="500,380 540,340 580,350 620,300 660,280 700,230 720,190"
    stroke="white" stroke-opacity="0.15" stroke-width="2" stroke-linecap="round" stroke-linejoin="round" fill="none"/>
</svg>
